HIERARCHY
ROOT hip
{
  OFFSET 5.51535 103.731 -2.80141
  CHANNELS 6 Xposition Yposition Zposition Zrotation Xrotation Yrotation
  JOINT abdomen
  {
    OFFSET 0 -1.186 -1.5018
    CHANNELS 6 Xposition Yposition Zposition Zrotation Xrotation Yrotation
    JOINT abdomen2
    {
      OFFSET 0 9.964 0.2134
      CHANNELS 6 Xposition Yposition Zposition Zrotation Xrotation Yrotation
      JOINT chest
      {
        OFFSET 0 13.134 -3.2573
        CHANNELS 6 Xposition Yposition Zposition Zrotation Xrotation Yrotation
        JOINT neck
        {
          OFFSET 0 20.686 -1.6905
          CHANNELS 6 Xposition Yposition Zposition Zrotation Xrotation Yrotation
          JOINT head
          {
            OFFSET 0 7.23801 -0.1237
            CHANNELS 6 Xposition Yposition Zposition Zrotation Xrotation Yrotation
            End Site
            {
              OFFSET 0 0 0
            }
          }
        }
        JOINT lCollar
        {
          OFFSET 1.7069 20.075 5.0056
          CHANNELS 6 Xposition Yposition Zposition Zrotation Xrotation Yrotation
          JOINT lShldr
          {
            OFFSET 13.6458 -0.0470195 -4.849
            CHANNELS 6 Xposition Yposition Zposition Zrotation Xrotation Yrotation
            JOINT lForeArm
            {
              OFFSET 28.3255 -0.97589 2.2888
              CHANNELS 6 Xposition Yposition Zposition Zrotation Xrotation Yrotation
              JOINT lHand
              {
                OFFSET 22.1583 -0.529998 10.8316
                CHANNELS 6 Xposition Yposition Zposition Zrotation Xrotation Yrotation
                JOINT lThumb1
                {
                  OFFSET 0.786 0.111997 2.5817
                  CHANNELS 6 Xposition Yposition Zposition Zrotation Xrotation Yrotation
                  JOINT lThumb2
                  {
                    OFFSET 0.360097 -0.877999 4.2331
                    CHANNELS 6 Xposition Yposition Zposition Zrotation Xrotation Yrotation
                    JOINT lThumb2_End
                    {
                      OFFSET 1.8127 -1.21601 2.2227
                      CHANNELS 6 Xposition Yposition Zposition Zrotation Xrotation Yrotation
                      End Site
                      {
                        OFFSET 0.0180981 -0.012195 0.0222007
                      }
                    }
                  }
                }
                JOINT lCarpal1
                {
                  OFFSET 0.9571 1.114 1.7695
                  CHANNELS 6 Xposition Yposition Zposition Zrotation Xrotation Yrotation
                  JOINT lIndex1
                  {
                    OFFSET 4.12461 0.486992 4.1451
                    CHANNELS 6 Xposition Yposition Zposition Zrotation Xrotation Yrotation
                    JOINT lIndex2
                    {
                      OFFSET 3.4052 -1.45401 2.7682
                      CHANNELS 6 Xposition Yposition Zposition Zrotation Xrotation Yrotation
                      JOINT lIndex2_End
                      {
                        OFFSET 1.45309 -1.79499 1.2713
                        CHANNELS 6 Xposition Yposition Zposition Zrotation Xrotation Yrotation
                        End Site
                        {
                          OFFSET 0.0144979 -0.0179083 0.0126995
                        }
                      }
                    }
                  }
                  JOINT lMid1
                  {
                    OFFSET 5.6954 0.209987 2.1184
                    CHANNELS 6 Xposition Yposition Zposition Zrotation Xrotation Yrotation
                    JOINT lMid2
                    {
                      OFFSET 3.9766 -1.53999 2.3863
                      CHANNELS 6 Xposition Yposition Zposition Zrotation Xrotation Yrotation
                      JOINT lMid2_End
                      {
                        OFFSET 1.4042 -1.926 1.125
                        CHANNELS 6 Xposition Yposition Zposition Zrotation Xrotation Yrotation
                        End Site
                        {
                          OFFSET 0.013999 -0.0193044 0.011301
                        }
                      }
                    }
                  }
                }
                JOINT lCarpal2
                {
                  OFFSET 2.0956 0.66 -0.3894
                  CHANNELS 6 Xposition Yposition Zposition Zrotation Xrotation Yrotation
                  JOINT lRing1
                  {
                    OFFSET 5.0395 -0.090013 2.4971
                    CHANNELS 6 Xposition Yposition Zposition Zrotation Xrotation Yrotation
                    JOINT lRing2
                    {
                      OFFSET 3.7921 -1.55199 1.4806
                      CHANNELS 6 Xposition Yposition Zposition Zrotation Xrotation Yrotation
                      JOINT lRing2_End
                      {
                        OFFSET 1.4655 -1.808 0.9609
                        CHANNELS 6 Xposition Yposition Zposition Zrotation Xrotation Yrotation
                        End Site
                        {
                          OFFSET 0.0147015 -0.0181014 0.00959957
                        }
                      }
                    }
                  }
                  JOINT lPinky1
                  {
                    OFFSET 4.9141 -1.269 0.3591
                    CHANNELS 6 Xposition Yposition Zposition Zrotation Xrotation Yrotation
                    JOINT lPinky2
                    {
                      OFFSET 3.1477 -1.685 0.8462
                      CHANNELS 6 Xposition Yposition Zposition Zrotation Xrotation Yrotation
                      JOINT lPinky2_End
                      {
                        OFFSET 0.805498 -1.58501 0.795499
                        CHANNELS 6 Xposition Yposition Zposition Zrotation Xrotation Yrotation
                        End Site
                        {
                          OFFSET 0.00809703 -0.0157944 0.00799848
                        }
                      }
                    }
                  }
                }
              }
            }
          }
        }
        JOINT rCollar
        {
          OFFSET -1.7069 20.075 5.0056
          CHANNELS 6 Xposition Yposition Zposition Zrotation Xrotation Yrotation
          JOINT rShldr
          {
            OFFSET -13.6458 -0.0470107 -4.849
            CHANNELS 6 Xposition Yposition Zposition Zrotation Xrotation Yrotation
            JOINT rForeArm
            {
              OFFSET -28.3255 -0.975895 2.2888
              CHANNELS 6 Xposition Yposition Zposition Zrotation Xrotation Yrotation
              JOINT rHand
              {
                OFFSET -22.1583 -0.530007 10.8316
                CHANNELS 6 Xposition Yposition Zposition Zrotation Xrotation Yrotation
                JOINT rThumb1
                {
                  OFFSET -0.785997 0.112005 2.5817
                  CHANNELS 6 Xposition Yposition Zposition Zrotation Xrotation Yrotation
                  JOINT rThumb2
                  {
                    OFFSET -0.360106 -0.877994 4.2331
                    CHANNELS 6 Xposition Yposition Zposition Zrotation Xrotation Yrotation
                    JOINT rThumb2_End
                    {
                      OFFSET -1.8127 -1.216 2.2227
                      CHANNELS 6 Xposition Yposition Zposition Zrotation Xrotation Yrotation
                      End Site
                      {
                        OFFSET -0.0180972 -0.0121973 0.0222005
                      }
                    }
                  }
                }
                JOINT rCarpal1
                {
                  OFFSET -0.9571 1.114 1.7695
                  CHANNELS 6 Xposition Yposition Zposition Zrotation Xrotation Yrotation
                  JOINT rIndex1
                  {
                    OFFSET -4.1246 0.487011 4.1451
                    CHANNELS 6 Xposition Yposition Zposition Zrotation Xrotation Yrotation
                    JOINT rIndex2
                    {
                      OFFSET -3.4052 -1.45401 2.7682
                      CHANNELS 6 Xposition Yposition Zposition Zrotation Xrotation Yrotation
                      JOINT rIndex2_End
                      {
                        OFFSET -1.4531 -1.795 1.2713
                        CHANNELS 6 Xposition Yposition Zposition Zrotation Xrotation Yrotation
                        End Site
                        {
                          OFFSET -0.0145077 -0.0180048 0.0127017
                        }
                      }
                    }
                  }
                  JOINT rMid1
                  {
                    OFFSET -5.6954 0.210002 2.1184
                    CHANNELS 6 Xposition Yposition Zposition Zrotation Xrotation Yrotation
                    JOINT rMid2
                    {
                      OFFSET -3.9766 -1.54 2.3863
                      CHANNELS 6 Xposition Yposition Zposition Zrotation Xrotation Yrotation
                      JOINT rMid2_End
                      {
                        OFFSET -1.4042 -1.926 1.125
                        CHANNELS 6 Xposition Yposition Zposition Zrotation Xrotation Yrotation
                        End Site
                        {
                          OFFSET -0.0139948 -0.0192916 0.0112994
                        }
                      }
                    }
                  }
                }
                JOINT rCarpal2
                {
                  OFFSET -2.0956 0.66 -0.3894
                  CHANNELS 6 Xposition Yposition Zposition Zrotation Xrotation Yrotation
                  JOINT rRing1
                  {
                    OFFSET -5.03951 -0.0899879 2.4971
                    CHANNELS 6 Xposition Yposition Zposition Zrotation Xrotation Yrotation
                    JOINT rRing2
                    {
                      OFFSET -3.7921 -1.55201 1.4806
                      CHANNELS 6 Xposition Yposition Zposition Zrotation Xrotation Yrotation
                      JOINT rRing2_End
                      {
                        OFFSET -1.4655 -1.808 0.960901
                        CHANNELS 6 Xposition Yposition Zposition Zrotation Xrotation Yrotation
                        End Site
                        {
                          OFFSET -0.0146934 -0.0180999 0.00959832
                        }
                      }
                    }
                  }
                  JOINT rPinky1
                  {
                    OFFSET -4.91411 -1.26899 0.359202
                    CHANNELS 6 Xposition Yposition Zposition Zrotation Xrotation Yrotation
                    JOINT rPinky2
                    {
                      OFFSET -3.14769 -1.68501 0.846199
                      CHANNELS 6 Xposition Yposition Zposition Zrotation Xrotation Yrotation
                      JOINT rPinky2_End
                      {
                        OFFSET -0.805498 -1.585 0.7955
                        CHANNELS 6 Xposition Yposition Zposition Zrotation Xrotation Yrotation
                        End Site
                        {
                          OFFSET -0.00810035 -0.0158035 0.00800029
                        }
                      }
                    }
                  }
                }
              }
            }
          }
        }
      }
    }
  }
  JOINT lThigh
  {
    OFFSET 8.367 -8.2066 0.5982
    CHANNELS 6 Xposition Yposition Zposition Zrotation Xrotation Yrotation
    JOINT lShin
    {
      OFFSET 2.1923 -43.463 -0.4932
      CHANNELS 6 Xposition Yposition Zposition Zrotation Xrotation Yrotation
      JOINT lFoot
      {
        OFFSET 0.733301 -45.8593 -2.6451
        CHANNELS 6 Xposition Yposition Zposition Zrotation Xrotation Yrotation
        End Site
        {
          OFFSET 2.6618 -4.2699 12.3931
        }
      }
    }
  }
  JOINT rThigh
  {
    OFFSET -8.367 -8.2066 0.5982
    CHANNELS 6 Xposition Yposition Zposition Zrotation Xrotation Yrotation
    JOINT rShin
    {
      OFFSET -2.1923 -43.463 -0.4931
      CHANNELS 6 Xposition Yposition Zposition Zrotation Xrotation Yrotation
      JOINT rFoot
      {
        OFFSET -0.733299 -45.8593 -2.6451
        CHANNELS 6 Xposition Yposition Zposition Zrotation Xrotation Yrotation
        End Site
        {
          OFFSET -2.6618 -4.2699 12.3931
        }
      }
    }
  }
}
MOTION
Frames:	4
Frame Time:	0.0333333
16.8683 32.5871 -48.0709 12.8006 10.1769 -55.1353 -5.35317e-007 -1.186 -1.5018 -0.153257 -2.78443 1.52611 2.79822e-007 9.964 0.213399 -0.232527 -5.57195 3.05015 1.05277e-006 13.134 -3.2573 -0.232524 -5.57196 3.05016 -6.4206e-007 20.686 -1.6905 0.173816 0.714285 -4.39527 -6.26422e-007 7.23808 -0.123703 6.57727 -0.317205 -2.25098 1.7069 20.075 5.0056 2.96039 -2.02014 -17.7981 13.6458 -0.0470114 -4.84899 -53.8107 -1.54995 -47.6141 28.3255 -0.97589 2.2888 -11.6202 -14.7454 -44.9633 22.1583 -0.529988 10.8316 -0.293079 -23.3465 9.30988 0.786003 0.111997 2.5817 29.0017 36.8211 -34.7961 0.360098 -0.877997 4.2331 -6.33704 -0.117352 -11.5742 1.8127 -1.21601 2.2227 6.48485 1.48414 12.0601 0.9571 1.114 1.7695 4.96564e-032 2.38542e-015 -1.19271e-015 4.1246 0.486992 4.1451 -4.88728 4.53868 12.6178 3.4052 -1.454 2.7682 -36.3635 10.0329 17.8993 1.4531 -1.79499 1.2713 -37.4307 10.1388 18.4808 5.6954 0.209987 2.1184 -1.58699 -0.577028 1.61799 3.9766 -1.53999 2.3863 -43.8283 12.1761 22.7531 1.4042 -1.926 1.125 -9.03163 4.06871 4.02201 2.0956 0.66 -0.3894 4.96564e-032 2.38542e-015 -1.19271e-015 5.0395 -0.0900132 2.49711 -8.44085 -1.94816 5.79528 3.7921 -1.55199 1.4806 -14.2679 6.48284 7.41473 1.4655 -1.808 0.960902 -15.7293 7.01835 8.23419 4.9141 -1.269 0.359104 10.4039 -12.5937 2.33183 3.1477 -1.685 0.846199 -18.2185 8.51745 9.60864 0.805498 -1.58501 0.795502 -8.80545 4.59369 4.39823 -1.7069 20.075 5.0056 -6.93188 -1.06529 30.815 -13.6458 -0.0470166 -4.849 37.1226 -28.5191 53.6946 -28.3255 -0.975888 2.2888 21.1762 3.11906 39.2843 -22.1583 -0.53001 10.8316 -39.45 -48.4467 -34.9016 -0.786001 0.112006 2.5817 -29.9217 33.5002 36.3092 -0.360105 -0.877996 4.2331 3.27635 -2.39823 9.40456 -1.8127 -1.216 2.2227 -4.44361 5.02817 -15.268 -0.9571 1.114 1.7695 3.18055e-015 1.59028e-015 -7.95139e-016 -4.12461 0.487013 4.1451 13.181 6.35509 -12.1375 -3.4052 -1.45401 2.7682 44.351 10.8048 -10.7982 -1.4531 -1.795 1.2713 45.4781 10.9508 -11.1601 -5.69541 0.210003 2.1184 7.07147 1.28866 -2.16553 -3.9766 -1.54 2.3863 52.3089 13.5299 -14.1043 -1.4042 -1.926 1.125 15.1721 5.32231 -2.78763 -2.0956 0.66 -0.3894 3.18055e-015 1.59028e-015 -7.95139e-016 -5.03951 -0.0899859 2.4971 14.479 -0.343077 -5.30921 -3.7921 -1.55201 1.4806 20.9794 7.69273 -5.18754 -1.4655 -1.808 0.960902 22.5759 8.18063 -5.68283 -4.91411 -1.26899 0.3592 -6.22067 -8.66594 -6.14885 -3.1477 -1.68501 0.846201 25.2633 9.75596 -6.40174 -0.8055 -1.585 0.795503 14.9452 6.18834 -3.30337 8.36701 -8.20661 0.598202 57.7103 -35.3229 38.4972 2.1923 -43.463 -0.493194 -179.754 35.571 -175.609 0.733297 -45.8593 -2.6451 10.3892 18.5883 -40.9285 -8.36701 -8.20661 0.598204 -53.9857 -29.2406 -19.0678 -2.19232 -43.463 -0.493123 163.884 33.5759 -154.395 -0.733296 -45.8593 -2.64509 -4.1947 26.4723 42.7279 
16.9455 32.607 -48.111 12.9621 10.3618 -55.0446 1.29472e-006 -1.186 -1.5018 -0.148941 -2.87928 1.50756 1.6753e-008 9.964 0.213401 -0.222293 -5.76149 3.01336 4.421e-007 13.134 -3.2573 -0.22229 -5.76149 3.01335 4.73129e-008 20.686 -1.6905 0.121685 0.167492 -4.37559 9.02433e-007 7.23801 -0.123699 6.81988 -0.243965 -2.3343 1.7069 20.075 5.0056 2.9118 -1.99338 -17.8101 13.6458 -0.0470146 -4.84901 -53.8489 -1.39192 -47.4016 28.3255 -0.975898 2.2888 -11.6379 -14.5994 -45.1505 22.1583 -0.529988 10.8316 -0.224514 -23.3962 9.41881 0.786003 0.111997 2.58171 29.0017 36.8211 -34.7961 0.360097 -0.878001 4.2331 -6.33703 -0.117356 -11.5742 1.8127 -1.21601 2.2227 6.48484 1.48413 12.0601 0.9571 1.114 1.7695 3.18055e-015 1.59028e-015 -3.18055e-015 4.1246 0.486994 4.1451 -4.88729 4.53865 12.6179 3.4052 -1.45401 2.7682 -36.3635 10.033 17.8993 1.4531 -1.79499 1.2713 -37.4307 10.1388 18.4809 5.6954 0.209987 2.1184 -1.587 -0.577038 1.618 3.9766 -1.53999 2.3863 -43.8283 12.1761 22.7531 1.4042 -1.926 1.125 -9.03165 4.0687 4.02202 2.0956 0.66 -0.3894 3.18055e-015 1.59028e-015 -3.18055e-015 5.0395 -0.0900125 2.4971 -8.44086 -1.94815 5.79528 3.7921 -1.55199 1.4806 -14.2679 6.48281 7.41474 1.4655 -1.808 0.960901 -15.7293 7.01838 8.2342 4.9141 -1.269 0.359098 10.4039 -12.5937 2.33184 3.1477 -1.685 0.8462 -18.2185 8.51744 9.60863 0.805498 -1.58501 0.795501 -8.80545 4.59369 4.39822 -1.7069 20.075 5.0056 -6.8636 -1.04456 30.707 -13.6458 -0.0470092 -4.849 37.2204 -28.4172 53.49 -28.3255 -0.975892 2.28881 21.1593 3.3678 39.4991 -22.1583 -0.530013 10.8316 -39.5481 -48.5048 -35.0841 -0.786 0.112005 2.5817 -29.9218 33.5002 36.3092 -0.360105 -0.877995 4.2331 3.27637 -2.39822 9.40457 -1.81269 -1.216 2.2227 -4.44361 5.02818 -15.268 -0.9571 1.114 1.7695 -3.18055e-015 -3.97569e-016 -1.59028e-015 -4.12461 0.487012 4.14511 13.181 6.35509 -12.1375 -3.4052 -1.45401 2.7682 44.351 10.8048 -10.7982 -1.4531 -1.795 1.2713 45.4781 10.9508 -11.1601 -5.69541 0.210003 2.1184 7.07144 1.28865 -2.16552 -3.9766 -1.54 2.3863 52.3089 13.5299 -14.1043 -1.4042 -1.926 1.125 15.1721 5.3223 -2.78763 -2.0956 0.66 -0.3894 -3.18055e-015 -3.97569e-016 -1.59028e-015 -5.03951 -0.089987 2.4971 14.479 -0.343071 -5.3092 -3.7921 -1.55201 1.4806 20.9794 7.69273 -5.18753 -1.4655 -1.808 0.960902 22.5759 8.18063 -5.68283 -4.91411 -1.26899 0.359199 -6.22068 -8.66592 -6.14886 -3.1477 -1.68501 0.846197 25.2632 9.75596 -6.40172 -0.8055 -1.585 0.795497 14.9452 6.18833 -3.30338 8.367 -8.2066 0.5982 57.8486 -35.7761 38.7404 2.19229 -43.4631 -0.493207 -179.722 35.4304 -175.748 0.733317 -45.8593 -2.64514 10.1235 18.5979 -40.6156 -8.367 -8.2066 0.598193 -53.9538 -29.3804 -19.3012 -2.19244 -43.463 -0.493207 163.88 33.5123 -154.306 -0.73329 -45.8593 -2.64509 -4.00843 26.0661 42.2451 
16.9943 32.6654 -48.1193 13.1312 10.6964 -54.925 1.41471e-006 -1.186 -1.5018 -0.118758 -3.0055 1.47843 -1.54925e-006 9.96399 0.2134 -0.160051 -6.01305 2.95688 -1.3471e-006 13.134 -3.2573 -0.160051 -6.01306 2.9569 5.8359e-007 20.686 -1.6905 0.0672026 -0.415929 -4.37106 -3.18814e-007 7.238 -0.123699 7.03007 -0.119346 -2.40794 1.7069 20.075 5.0056 2.8794 -1.96569 -17.835 13.6458 -0.0470127 -4.84899 -53.9224 -1.17276 -46.9776 28.3255 -0.975898 2.2888 -11.8175 -14.4311 -45.6128 22.1583 -0.529984 10.8316 -0.144561 -23.3713 9.55263 0.786003 0.111997 2.5817 29.0018 36.8211 -34.7961 0.360097 -0.878 4.2331 -6.33704 -0.117345 -11.5742 1.8127 -1.21601 2.2227 6.48484 1.48412 12.0601 0.9571 1.114 1.7695 -3.18055e-015 0 1.59028e-015 4.1246 0.486993 4.1451 -4.88729 4.53863 12.6178 3.4052 -1.454 2.7682 -36.3635 10.033 17.8993 1.4531 -1.79499 1.2713 -37.4307 10.1388 18.4808 5.6954 0.209988 2.1184 -1.58699 -0.577041 1.618 3.9766 -1.53999 2.3863 -43.8283 12.1761 22.7532 1.4042 -1.926 1.125 -9.03166 4.06871 4.02204 2.0956 0.66 -0.3894 -3.18055e-015 0 1.59028e-015 5.0395 -0.090013 2.4971 -8.44085 -1.94817 5.79528 3.7921 -1.55199 1.4806 -14.2679 6.48282 7.41473 1.4655 -1.808 0.9609 -15.7293 7.01837 8.2342 4.9141 -1.269 0.359103 10.4039 -12.5937 2.33184 3.1477 -1.685 0.846198 -18.2185 8.51746 9.60864 0.805498 -1.58501 0.795502 -8.80546 4.59367 4.39823 -1.7069 20.075 5.0056 -6.68312 -1.02851 30.5171 -13.6458 -0.0470114 -4.849 37.2453 -28.1871 53.1864 -28.3255 -0.975893 2.28879 21.0861 3.72099 39.9001 -22.1583 -0.530003 10.8316 -39.6696 -48.612 -35.3912 -0.786001 0.112005 2.5817 -29.9217 33.5002 36.3092 -0.360104 -0.877993 4.2331 3.27636 -2.39822 9.40457 -1.8127 -1.216 2.2227 -4.4436 5.02818 -15.268 -0.9571 1.114 1.7695 -3.18055e-015 0 7.95139e-016 -4.1246 0.487009 4.1451 13.181 6.35509 -12.1375 -3.4052 -1.45401 2.7682 44.351 10.8048 -10.7982 -1.4531 -1.795 1.2713 45.4781 10.9508 -11.16 -5.6954 0.21 2.1184 7.07146 1.28866 -2.16553 -3.9766 -1.54 2.3863 52.3089 13.53 -14.1043 -1.4042 -1.926 1.125 15.1721 5.32231 -2.78762 -2.0956 0.66 -0.3894 -3.18055e-015 0 7.95139e-016 -5.03951 -0.0899885 2.4971 14.479 -0.343067 -5.3092 -3.7921 -1.55201 1.4806 20.9794 7.69274 -5.18755 -1.4655 -1.808 0.960903 22.5759 8.18063 -5.68282 -4.91411 -1.26899 0.359202 -6.22069 -8.6659 -6.14886 -3.1477 -1.68501 0.846196 25.2632 9.75596 -6.40173 -0.8055 -1.58499 0.795497 14.9452 6.18834 -3.30337 8.36701 -8.20661 0.598203 58.1144 -36.2761 39.054 2.19231 -43.463 -0.493183 -179.688 35.3304 -175.91 0.733284 -45.8593 -2.6451 9.86536 18.5564 -40.2275 -8.36701 -8.20662 0.598204 -53.7694 -29.5132 -19.6537 -2.19217 -43.4631 -0.493014 163.843 33.5235 -154.188 -0.733301 -45.8593 -2.64511 -3.70884 25.6191 41.5882 
17.0038 32.7623 -48.0898 13.2662 11.1198 -54.7872 7.47152e-007 -1.186 -1.5018 -0.0667822 -3.14282 1.44391 3.76298e-007 9.96399 0.213402 -0.0541996 -6.28631 2.89072 -2.3729e-008 13.134 -3.2573 -0.0541986 -6.28632 2.89074 -2.40065e-007 20.686 -1.6905 0.0104113 -0.969626 -4.38873 -1.9036e-006 7.23801 -0.123701 7.22255 0.00520911 -2.46641 1.7069 20.075 5.0056 2.89181 -1.9391 -17.8651 13.6458 -0.0470115 -4.849 -54.0425 -0.922143 -46.4019 28.3255 -0.975902 2.2888 -12.1417 -14.2389 -46.2552 22.1583 -0.529982 10.8316 -0.0763206 -23.2916 9.65073 0.786003 0.111997 2.5817 29.0018 36.8212 -34.7961 0.360098 -0.878 4.2331 -6.33704 -0.117344 -11.5742 1.8127 -1.21601 2.2227 6.48484 1.48412 12.0601 0.9571 1.114 1.7695 -3.18055e-015 0 -1.19271e-015 4.1246 0.486992 4.1451 -4.8873 4.53864 12.6178 3.4052 -1.454 2.7682 -36.3635 10.033 17.8993 1.4531 -1.79499 1.2713 -37.4307 10.1388 18.4809 5.6954 0.209988 2.1184 -1.58699 -0.577033 1.618 3.9766 -1.53999 2.3863 -43.8284 12.1761 22.7532 1.4042 -1.926 1.125 -9.03165 4.0687 4.02204 2.0956 0.66 -0.3894 -3.18055e-015 0 -1.19271e-015 5.0395 -0.0900129 2.4971 -8.44085 -1.94817 5.79528 3.7921 -1.55199 1.4806 -14.2679 6.48282 7.41475 1.4655 -1.808 0.960899 -15.7294 7.01838 8.2342 4.9141 -1.269 0.3591 10.4039 -12.5937 2.33184 3.1477 -1.685 0.846204 -18.2186 8.51745 9.60865 0.805498 -1.58501 0.7955 -8.80546 4.59369 4.39823 -1.7069 20.075 5.0056 -6.42415 -1.01756 30.2675 -13.6458 -0.0470158 -4.84901 37.2304 -27.8729 52.8256 -28.3255 -0.975887 2.2888 21.0048 4.15065 40.4163 -22.1583 -0.53001 10.8316 -39.7813 -48.7386 -35.726 -0.786001 0.112005 2.5817 -29.9218 33.5003 36.3093 -0.360106 -0.877993 4.2331 3.27636 -2.39822 9.40458 -1.81269 -1.216 2.2227 -4.44361 5.02819 -15.268 -0.9571 1.114 1.7695 3.18055e-015 -2.78299e-015 -0 -4.12461 0.48701 4.1451 13.181 6.35511 -12.1375 -3.4052 -1.45401 2.7682 44.351 10.8048 -10.7982 -1.4531 -1.795 1.2713 45.4781 10.9508 -11.1601 -5.69541 0.210003 2.1184 7.07146 1.28869 -2.16553 -3.9766 -1.54 2.3863 52.3089 13.53 -14.1043 -1.4042 -1.926 1.125 15.1721 5.32231 -2.78763 -2.0956 0.66 -0.3894 3.18055e-015 -2.78299e-015 -0 -5.03951 -0.0899862 2.4971 14.479 -0.343051 -5.3092 -3.7921 -1.55201 1.4806 20.9794 7.69272 -5.18755 -1.4655 -1.808 0.960903 22.5759 8.18064 -5.68282 -4.91411 -1.26899 0.359198 -6.22069 -8.66587 -6.14884 -3.1477 -1.68501 0.846197 25.2632 9.75598 -6.40173 -0.8055 -1.585 0.795498 14.9452 6.18835 -3.30337 8.367 -8.2066 0.598202 58.444 -36.7353 39.3683 2.1923 -43.4631 -0.49319 -179.657 35.2976 -176.078 0.733303 -45.8593 -2.64511 9.63344 18.4892 -39.8279 -8.367 -8.2066 0.598201 -53.4188 -29.5996 -20.0429 -2.19243 -43.463 -0.493187 163.771 33.6247 -154.061 -0.733285 -45.8593 -2.64509 -3.38496 25.1536 40.862 
